<svg xmlns="http://www.w3.org/2000/svg" width="64" height="64"><path d="m21 8 3 1v2h16l1-3h2c.055 2.5.094 5 .125 7.5.017.696.034 1.392.05 2.11.041 4.34-.54 7.927-1.712 12.14-1.188 5.77-.825 11.888-.854 17.758l-.07 3.133-.025 2.829C39.852 56.73 38.548 57.93 36 60c-2 .531-2 .531-4 .5l-2 .031c-2.913-.774-4.092-2.23-6-4.531-.514-2.53-.514-2.53-.54-5.36-.022-1.033-.045-2.067-.07-3.132l-.015-3.258c.024-8.327.024-8.327-1.39-16.484-1.108-4.238-1.215-7.922-1.11-12.266l.027-2.203c.024-1.766.06-3.531.098-5.297Zm8 11c-2.52 3.78-2.467 7.617-2 12 .863 2.406.863 2.406 2 4h6c2.52-3.78 2.467-7.617 2-12-.863-2.406-.863-2.406-2-4h-6Zm0 19v2h6v-2h-6Zm0 4v2h6v-2h-6Z"/><path d="M29 20h6v14h-6V20Zm2 8v2h2v-2h-2ZM25 8h14v2H25V8ZM41 3h2v3h-2V3ZM37 3h2v3h-2V3ZM33 3h2v3h-2V3ZM29 3h2v3h-2V3ZM25 3h2v3h-2V3ZM21 3h2v3h-2V3Z"/></svg>