<svg xmlns="http://www.w3.org/2000/svg" width="64" height="64"><path d="m2 3 3 1a99.496 99.496 0 0 1 3 7.875 419.99 419.99 0 0 0 1.5 4.367l.656 1.965C11.123 20.262 12.322 21.49 14 23l1.906-1.059C25.494 16.844 32.451 16.084 43 19c2.818 1.167 5.338 2.493 8 4 3.392-6.535 6.38-13.119 9-20l3 1a200.953 200.953 0 0 1 1.313 21.063l.087 2.814C64.5 38.785 59.66 46.618 53 55c-5.275 5.275-11.437 6.255-18.623 6.322l-2.315-.01-2.302.05c-7.073.005-13.742-1.65-19.178-6.503C5.112 48.43-.122 40.615-.133 32.027l-.004-2.978.012-3.111-.012-3.03C-.114 5.114-.114 5.114 2 3Zm19 26 1 4 2.598-.254c6.001-.534 11.486-.984 17.402.254.772-1.837.772-1.837 1-4-.97-1.773-.97-1.773-3-3-2.58-.3-4.865-.42-7.438-.375l-3.996-.023c-3.61.403-5 .918-7.566 3.398Z"/></svg>