<svg xmlns="http://www.w3.org/2000/svg" width="64" height="64"><path d="m10.41 1.477 2.652.148 2.66.102C18 2 18 2 20 3v3H10v3h10v2H10v2h10v2H10v2h10v2H10v2h10v2H10v2h10v2H10v2h10v2H10v3h10l-1 4h-6c.284 1.585.578 3.168.875 4.75l.492 2.672c.52 2.557.52 2.557 1.692 4.613 1.13 2.36 1.176 4.049 1.128 6.653l-.019 2.386C17 61 17 61 16 62c-1.996.168-1.996.168-4.438.188l-2.433.042C7 62 7 62 5 60c-.26-2.219-.26-2.219-.275-5.013l-.029-3.166.003-3.434-.013-3.52c-.006-2.463-.006-4.925-.002-7.387.003-3.767-.02-7.532-.045-11.298-.003-2.39-.003-4.78-.002-7.17l-.028-3.416.019-3.195L4.626 9.6c.564-3.922 1.699-7.236 5.784-8.123ZM25 24c3.32 1.391 4.9 2.844 6.91 5.809l1.56 2.263 1.593 2.365c1.05 1.543 2.104 3.083 3.16 4.622l1.398 2.072C40.962 42.949 42.361 44.45 44 46a141.135 141.135 0 0 1 5 5v2l2.813-1.125L55 51l3 2c.408 2.712.133 5.244 0 8-3 1-3 1-5.938.063-3.54-2.385-4.297-4.093-5.617-8.028-1.658-2.335-2.618-2.642-5.207-3.73-5.266-2.439-7.396-6.32-10.175-11.242-.48-.8-.96-1.598-1.456-2.42C27.305 31.723 25.733 28.529 25 24Zm28 31v3h2v-3h-2Z"/><path d="m36 48 4 1-1.813 2.125c-2.299 2.783-2.299 2.783-3.562 6.063C33 60 33 60 29.812 61.374L27 62l-3-3 2-7c2.606-.93 3.642-1.15 6.25-.063L34 53l2-5Zm-8 7v3h2v-3h-2ZM56 24h2c-2.125 7.967-5.818 14.564-11 21l-3 1-2-2c1.58-2.398 3.164-4.793 4.75-7.188l1.344-2.04C53.044 27.308 53.044 27.308 56 24Z"/></svg>