<svg xmlns="http://www.w3.org/2000/svg" width="64" height="64"><path d="M36 18h14l1 6c2.182 2.144 2.182 2.144 4.938 3.75C60.956 30.956 60.956 30.956 63 33c.259 2.123.259 2.123.266 4.719l.007 2.824-.023 2.957.023 2.957-.007 2.824-.007 2.596C63 54 63 54 61 56c-2.63.2-5.151.28-7.781.266l-2.331.005c-1.628.002-3.255-.002-4.883-.01-2.495-.011-4.99 0-7.485.012-1.58 0-3.16-.003-4.739-.007l-2.27.012C26.23 56.23 26.23 56.23 24 54c-.478-3.437-.37-6.908-.375-10.375l-.074-2.906c-.03-7.058-.03-7.058 2.277-10.242L28 29l3.125-2.25C34 25 34 25 36 25v-7ZM16 47c1.813 1.188 1.813 1.188 3 3 .618 3.971.16 5.714-1.813 9.25-2.117 2.662-3.652 4.512-7.125 5.05-5.438.032-5.438.032-8.062-1.362C.359 59.758.523 57.52 1 54c3.85-5.83 7.933-9.418 15-7ZM24 58h39v6H24v-6ZM33 10h20l2 4c-2 2-2 2-3.94 2.243l-2.341-.013-2.551-.005-2.668-.038-2.668-.001C34.281 16.14 34.281 16.14 32 15l1-5ZM36 0h14v7H36V0Z"/></svg>