<?xml version="1.0" encoding="UTF-8"?>
<svg version="1.1" xmlns="http://www.w3.org/2000/svg" width="64" height="64">
<path d="M0 0 C0.99 0.33 1.98 0.66 3 1 C3 1.66 3 2.32 3 3 C8.28 3 13.56 3 19 3 C19.33 2.01 19.66 1.02 20 0 C20.66 0 21.32 0 22 0 C22.05461827 2.50030305 22.09396393 4.99937986 22.125 7.5 C22.14175781 8.19609375 22.15851562 8.8921875 22.17578125 9.609375 C22.21598053 13.95089692 21.63579675 17.53717407 20.46337891 21.75 C19.27495885 27.52053701 19.63752989 33.63751697 19.609375 39.5078125 C19.58617188 40.54164062 19.56296875 41.57546875 19.5390625 42.640625 C19.52673584 44.04103027 19.52673584 44.04103027 19.51416016 45.46972656 C18.85160447 48.73028074 17.54830359 49.93065611 15 52 C13 52.53125 13 52.53125 11 52.5 C10.01 52.51546875 10.01 52.51546875 9 52.53125 C6.08687793 51.75745195 4.90771285 50.30057773 3 48 C2.48583984 45.46972656 2.48583984 45.46972656 2.4609375 42.640625 C2.43773437 41.60679688 2.41453125 40.57296875 2.390625 39.5078125 C2.38546875 38.43273438 2.3803125 37.35765625 2.375 36.25 C2.39854855 27.92303514 2.39854855 27.92303514 0.984375 19.765625 C-0.12339033 15.52798304 -0.22957215 11.84376609 -0.125 7.5 C-0.11597656 6.77296875 -0.10695313 6.0459375 -0.09765625 5.296875 C-0.07442241 3.5311028 -0.03856683 1.76550386 0 0 Z M8 11 C5.47944495 14.78083258 5.53297822 18.61718019 6 23 C6.86265968 25.40557853 6.86265968 25.40557853 8 27 C9.98 27 11.96 27 14 27 C16.52055505 23.21916742 16.46702178 19.38281981 16 15 C15.13734032 12.59442147 15.13734032 12.59442147 14 11 C12.02 11 10.04 11 8 11 Z M8 30 C8 30.66 8 31.32 8 32 C9.98 32 11.96 32 14 32 C14 31.34 14 30.68 14 30 C12.02 30 10.04 30 8 30 Z M8 34 C8 34.66 8 35.32 8 36 C9.98 36 11.96 36 14 36 C14 35.34 14 34.68 14 34 C12.02 34 10.04 34 8 34 Z " fill="#000000" transform="translate(21,8)"/>
<path d="M0 0 C1.98 0 3.96 0 6 0 C6 4.62 6 9.24 6 14 C4.02 14 2.04 14 0 14 C0 9.38 0 4.76 0 0 Z M2 8 C2 8.66 2 9.32 2 10 C2.66 10 3.32 10 4 10 C4 9.34 4 8.68 4 8 C3.34 8 2.68 8 2 8 Z " fill="#000000" transform="translate(29,20)"/>
<path d="M0 0 C4.62 0 9.24 0 14 0 C14 0.66 14 1.32 14 2 C9.38 2 4.76 2 0 2 C0 1.34 0 0.68 0 0 Z " fill="#000000" transform="translate(25,8)"/>
<path d="M0 0 C0.66 0 1.32 0 2 0 C2 0.99 2 1.98 2 3 C1.34 3 0.68 3 0 3 C0 2.01 0 1.02 0 0 Z " fill="#000000" transform="translate(41,3)"/>
<path d="M0 0 C0.66 0 1.32 0 2 0 C2 0.99 2 1.98 2 3 C1.34 3 0.68 3 0 3 C0 2.01 0 1.02 0 0 Z " fill="#000000" transform="translate(37,3)"/>
<path d="M0 0 C0.66 0 1.32 0 2 0 C2 0.99 2 1.98 2 3 C1.34 3 0.68 3 0 3 C0 2.01 0 1.02 0 0 Z " fill="#000000" transform="translate(33,3)"/>
<path d="M0 0 C0.66 0 1.32 0 2 0 C2 0.99 2 1.98 2 3 C1.34 3 0.68 3 0 3 C0 2.01 0 1.02 0 0 Z " fill="#000000" transform="translate(29,3)"/>
<path d="M0 0 C0.66 0 1.32 0 2 0 C2 0.99 2 1.98 2 3 C1.34 3 0.68 3 0 3 C0 2.01 0 1.02 0 0 Z " fill="#000000" transform="translate(25,3)"/>
<path d="M0 0 C0.66 0 1.32 0 2 0 C2 0.99 2 1.98 2 3 C1.34 3 0.68 3 0 3 C0 2.01 0 1.02 0 0 Z " fill="#000000" transform="translate(21,3)"/>
</svg>
