<?xml version="1.0" encoding="UTF-8"?>
<svg version="1.1" xmlns="http://www.w3.org/2000/svg" width="64" height="64">
<path d="M0 0 C0.99 0.33 1.98 0.66 3 1 C4.12811843 3.62640072 5.09759015 6.1724705 6 8.875 C6.49211812 10.33341255 6.99187713 11.78927368 7.5 13.2421875 C7.7165625 13.8904248 7.933125 14.53866211 8.15625 15.20654297 C9.12307036 17.26159573 10.32179897 18.49020178 12 20 C12.6290625 19.65066406 13.258125 19.30132813 13.90625 18.94140625 C23.49376587 13.84442869 30.45117181 13.08418787 41 16 C43.81779399 17.16705483 46.33811731 18.49327395 49 20 C52.39247043 13.46532335 55.37933326 6.88108028 58 0 C58.99 0.33 59.98 0.66 61 1 C61.81176519 8.0273492 62.23856591 14.98947242 62.3125 22.0625 C62.35600586 23.4556543 62.35600586 23.4556543 62.40039062 24.87695312 C62.49990281 35.78501935 57.6599476 43.61843329 51 52 C45.725227 57.274773 39.56320548 58.25464477 32.37695312 58.32226562 C31.61318359 58.31904297 30.84941406 58.31582031 30.0625 58.3125 C29.30259766 58.32861328 28.54269531 58.34472656 27.75976562 58.36132812 C20.68675917 58.36736827 14.01830537 56.71158662 8.58203125 51.859375 C3.11133474 45.42961812 -2.12185843 37.61455527 -2.1328125 29.02734375 C-2.13410156 28.04443359 -2.13539062 27.06152344 -2.13671875 26.04882812 C-2.13285156 25.02208984 -2.12898437 23.99535156 -2.125 22.9375 C-2.12886719 21.93783203 -2.13273438 20.93816406 -2.13671875 19.90820312 C-2.11359385 2.11359385 -2.11359385 2.11359385 0 0 Z M19 26 C19.33 27.32 19.66 28.64 20 30 C20.85722656 29.91621094 21.71445312 29.83242188 22.59765625 29.74609375 C28.59931736 29.21156024 34.08421487 28.76181241 40 30 C40.77242269 28.16299211 40.77242269 28.16299211 41 26 C40.02985099 24.22726162 40.02985099 24.22726162 38 23 C35.41991966 22.70060501 33.13540077 22.58059711 30.5625 22.625 C29.24378906 22.61726563 27.92507812 22.60953125 26.56640625 22.6015625 C22.9559419 23.00492215 21.56535936 23.51993392 19 26 Z " fill="#000000" transform="translate(2,3)"/>
</svg>
