<?xml version="1.0" encoding="UTF-8"?>
<svg version="1.1" xmlns="http://www.w3.org/2000/svg" width="64" height="64">
<path d="M0 0 C0.87527344 0.04898438 1.75054688 0.09796875 2.65234375 0.1484375 C3.53019531 0.18195312 4.40804688 0.21546875 5.3125 0.25 C7.58984375 0.5234375 7.58984375 0.5234375 9.58984375 1.5234375 C9.58984375 2.5134375 9.58984375 3.5034375 9.58984375 4.5234375 C6.28984375 4.5234375 2.98984375 4.5234375 -0.41015625 4.5234375 C-0.41015625 5.5134375 -0.41015625 6.5034375 -0.41015625 7.5234375 C2.88984375 7.5234375 6.18984375 7.5234375 9.58984375 7.5234375 C9.58984375 8.1834375 9.58984375 8.8434375 9.58984375 9.5234375 C6.28984375 9.5234375 2.98984375 9.5234375 -0.41015625 9.5234375 C-0.41015625 10.1834375 -0.41015625 10.8434375 -0.41015625 11.5234375 C2.88984375 11.5234375 6.18984375 11.5234375 9.58984375 11.5234375 C9.58984375 12.1834375 9.58984375 12.8434375 9.58984375 13.5234375 C6.28984375 13.5234375 2.98984375 13.5234375 -0.41015625 13.5234375 C-0.41015625 14.1834375 -0.41015625 14.8434375 -0.41015625 15.5234375 C2.88984375 15.5234375 6.18984375 15.5234375 9.58984375 15.5234375 C9.58984375 16.1834375 9.58984375 16.8434375 9.58984375 17.5234375 C6.28984375 17.5234375 2.98984375 17.5234375 -0.41015625 17.5234375 C-0.41015625 18.1834375 -0.41015625 18.8434375 -0.41015625 19.5234375 C2.88984375 19.5234375 6.18984375 19.5234375 9.58984375 19.5234375 C9.58984375 20.1834375 9.58984375 20.8434375 9.58984375 21.5234375 C6.28984375 21.5234375 2.98984375 21.5234375 -0.41015625 21.5234375 C-0.41015625 22.1834375 -0.41015625 22.8434375 -0.41015625 23.5234375 C2.88984375 23.5234375 6.18984375 23.5234375 9.58984375 23.5234375 C9.58984375 24.1834375 9.58984375 24.8434375 9.58984375 25.5234375 C6.28984375 25.5234375 2.98984375 25.5234375 -0.41015625 25.5234375 C-0.41015625 26.1834375 -0.41015625 26.8434375 -0.41015625 27.5234375 C2.88984375 27.5234375 6.18984375 27.5234375 9.58984375 27.5234375 C9.58984375 28.1834375 9.58984375 28.8434375 9.58984375 29.5234375 C6.28984375 29.5234375 2.98984375 29.5234375 -0.41015625 29.5234375 C-0.41015625 30.5134375 -0.41015625 31.5034375 -0.41015625 32.5234375 C2.88984375 32.5234375 6.18984375 32.5234375 9.58984375 32.5234375 C9.25984375 33.8434375 8.92984375 35.1634375 8.58984375 36.5234375 C6.60984375 36.5234375 4.62984375 36.5234375 2.58984375 36.5234375 C2.87411792 38.10811478 3.16759193 39.6911432 3.46484375 41.2734375 C3.62726562 42.15515625 3.7896875 43.036875 3.95703125 43.9453125 C4.47681494 46.50223327 4.47681494 46.50223327 5.6484375 48.55859375 C6.77954738 50.91937495 6.82468827 52.60698874 6.77734375 55.2109375 C6.76767578 56.39236328 6.76767578 56.39236328 6.7578125 57.59765625 C6.58984375 59.5234375 6.58984375 59.5234375 5.58984375 60.5234375 C3.59375 60.69140625 3.59375 60.69140625 1.15234375 60.7109375 C0.34925781 60.72511719 -0.45382813 60.73929688 -1.28125 60.75390625 C-3.41015625 60.5234375 -3.41015625 60.5234375 -5.41015625 58.5234375 C-5.67085266 56.30448914 -5.67085266 56.30448914 -5.68481445 53.51049805 C-5.69434647 52.46568771 -5.70387848 51.42087738 -5.71369934 50.34440613 C-5.71278793 49.21110367 -5.71187653 48.07780121 -5.7109375 46.91015625 C-5.71522263 45.74845413 -5.71950775 44.58675201 -5.72392273 43.3898468 C-5.72967516 40.92762911 -5.73015961 38.46539443 -5.72583008 36.00317383 C-5.72267793 32.23684571 -5.74609184 28.47130858 -5.77148438 24.70507812 C-5.77375805 22.31510516 -5.77446055 19.92513008 -5.7734375 17.53515625 C-5.78264725 16.40792648 -5.79185699 15.28069672 -5.80134583 14.11930847 C-5.79511703 13.06504166 -5.78888824 12.01077484 -5.7824707 10.92456055 C-5.78310013 10.00015671 -5.78372955 9.07575287 -5.78437805 8.12333679 C-5.21991155 4.20171581 -4.08541912 0.88727093 0 0 Z " fill="#000000" transform="translate(10.41015625,1.4765625)"/>
<path d="M0 0 C3.31921051 1.39106432 4.90045306 2.84355543 6.91015625 5.80859375 C7.42513672 6.55560547 7.94011719 7.30261719 8.47070312 8.07226562 C9.25864258 9.24305664 9.25864258 9.24305664 10.0625 10.4375 C11.11322875 11.979678 12.16652339 13.52011162 13.22265625 15.05859375 C13.68422119 15.74236084 14.14578613 16.42612793 14.62133789 17.13061523 C15.96207738 18.94857916 17.36157805 20.4499099 19 22 C20.70586575 23.62652316 22.3777546 25.29006566 24 27 C24 27.66 24 28.32 24 29 C24.928125 28.62875 25.85625 28.2575 26.8125 27.875 C27.864375 27.58625 28.91625 27.2975 30 27 C30.99 27.66 31.98 28.32 33 29 C33.40843923 31.71203652 33.13336867 34.2437142 33 37 C30 38 30 38 27.0625 37.0625 C23.52184597 34.6779779 22.76463455 32.97037547 21.4453125 29.03515625 C19.78666906 26.69960697 18.82692062 26.39345956 16.23828125 25.3046875 C10.97203051 22.86645393 8.84248686 18.98580532 6.0625 14.0625 C5.58232422 13.26392578 5.10214844 12.46535156 4.60742188 11.64257812 C2.3050181 7.72297113 0.73258646 4.5287613 0 0 Z M28 31 C28 31.99 28 32.98 28 34 C28.66 34 29.32 34 30 34 C30 33.01 30 32.02 30 31 C29.34 31 28.68 31 28 31 Z " fill="#000000" transform="translate(25,24)"/>
<path d="M0 0 C1.32 0.33 2.64 0.66 4 1 C3.401875 1.70125 2.80375 2.4025 2.1875 3.125 C-0.11185155 5.90759017 -0.11185155 5.90759017 -1.375 9.1875 C-3 12 -3 12 -6.1875 13.375 C-7.115625 13.58125 -8.04375 13.7875 -9 14 C-9.99 13.01 -10.98 12.02 -12 11 C-11.34 8.69 -10.68 6.38 -10 4 C-7.39417629 3.06934867 -6.35801776 2.85082593 -3.75 3.9375 C-3.1725 4.288125 -2.595 4.63875 -2 5 C-1.34 3.35 -0.68 1.7 0 0 Z M-8 7 C-8 7.99 -8 8.98 -8 10 C-7.34 10 -6.68 10 -6 10 C-6 9.01 -6 8.02 -6 7 C-6.66 7 -7.32 7 -8 7 Z " fill="#000000" transform="translate(36,48)"/>
<path d="M0 0 C0.66 0 1.32 0 2 0 C-0.12461484 7.96730566 -3.8178697 14.5641285 -9 21 C-9.99 21.33 -10.98 21.66 -12 22 C-12.66 21.34 -13.32 20.68 -14 20 C-12.41956865 17.60220816 -10.83577556 15.20675383 -9.25 12.8125 C-8.8065625 12.13896484 -8.363125 11.46542969 -7.90625 10.77148438 C-2.95528906 3.30863883 -2.95528906 3.30863883 0 0 Z " fill="#000000" transform="translate(56,24)"/>
</svg>
