<?xml version="1.0" encoding="UTF-8"?>
<svg version="1.1" xmlns="http://www.w3.org/2000/svg" width="64" height="64">
<path d="M0 0 C2.98087575 2.45094228 4.86351998 4.79527998 7 8 C7 9.32 7 10.64 7 12 C2.62140745 11.49477778 0.18348776 8.82172778 -3 6 C-2.55527344 6.47050781 -2.11054687 6.94101563 -1.65234375 7.42578125 C-1.08644531 8.04839844 -0.52054688 8.67101563 0.0625 9.3125 C0.63097656 9.92738281 1.19945312 10.54226563 1.78515625 11.17578125 C2.18605469 11.77777344 2.58695313 12.37976563 3 13 C2.67 13.99 2.34 14.98 2 16 C1.34 16 0.68 16 0 16 C-0.495 17.485 -0.495 17.485 -1 19 C-1.66 19 -2.32 19 -3 19 C-3.495 20.485 -3.495 20.485 -4 22 C-4.66 22 -5.32 22 -6 22 C-6.495 23.485 -6.495 23.485 -7 25 C-7.66 25 -8.32 25 -9 25 C-9.495 26.485 -9.495 26.485 -10 28 C-10.66 28 -11.32 28 -12 28 C-12.495 29.485 -12.495 29.485 -13 31 C-13.66 31 -14.32 31 -15 31 C-15.33 31.99 -15.66 32.98 -16 34 C-19.43595166 32.47291037 -22.11912454 30.40072955 -25 28 C-23.7315625 29.36125 -23.7315625 29.36125 -22.4375 30.75 C-20.99609375 32.296875 -20.99609375 32.296875 -20 34 C-20.34765625 36.203125 -20.34765625 36.203125 -21 38 C-21.58007812 38.08636719 -22.16015625 38.17273437 -22.7578125 38.26171875 C-28.43293582 39.28249176 -31.98679753 40.61347637 -36 45 C-38.74235538 49.76396351 -40.43656795 54.50653747 -41 60 C-44.83473284 60.35671933 -46.55342875 60.29771416 -49.8125 58.125 C-52.92030477 55.10598965 -53.17406595 53.40816778 -53.25 49.1875 C-53.27578125 48.33542969 -53.3015625 47.48335937 -53.328125 46.60546875 C-52.5948603 40.78299788 -48.89439424 37.77024055 -44.5 34.25 C-43.06140625 33.08210938 -43.06140625 33.08210938 -41.59375 31.890625 C-39 30 -39 30 -36 29 C-35.28738746 27.69064688 -34.62858872 26.35170206 -34 25 C-13.53442281 -3.24826147 -13.53442281 -3.24826147 0 0 Z " fill="#000000" transform="translate(55,2)"/>
</svg>
