<?xml version="1.0" encoding="UTF-8"?>
<svg version="1.1" xmlns="http://www.w3.org/2000/svg" width="64" height="64">
<path d="M0 0 C1.65 0 3.3 0 5 0 C5.495 0.99 5.495 0.99 6 2 C7.98 1.34 9.96 0.68 12 0 C12 1.32 12 2.64 12 4 C10.9275 4.17402344 9.855 4.34804687 8.75 4.52734375 C6.44897749 5.18882985 5.29212692 5.63448911 3.78515625 7.52001953 C2.74884962 9.50055133 1.8586879 11.49879609 1 13.5625 C0.33032386 15.02684766 -0.34675724 16.48783184 -1.03125 17.9453125 C-1.36125 18.64817383 -1.69125 19.35103516 -2.03125 20.07519531 C-4.10339133 24.19232289 -6.97589487 27.55924039 -10 31 C-10.58007812 31.721875 -11.16015625 32.44375 -11.7578125 33.1875 C-15.61469095 37.83511921 -19.86836017 41.78852971 -24.5625 45.5625 C-25.09246582 46.00456787 -25.62243164 46.44663574 -26.16845703 46.90209961 C-30.16443452 49.9941518 -33.01967218 50.53558532 -38 50 C-39 49 -39 49 -39.4609375 45.8046875 C-38.91040901 41.26049469 -37.93039047 40.34361287 -34.53027344 37.57641602 C-33.9015332 37.09744873 -33.27279297 36.61848145 -32.625 36.125 C-31.33018915 35.07488424 -30.03592114 34.02409883 -28.7421875 32.97265625 C-28.10249023 32.46492676 -27.46279297 31.95719727 -26.80371094 31.43408203 C-18.08339078 24.50079012 -9.0700243 16.1400486 -4 6 C-6.31 5.67 -8.62 5.34 -11 5 C-11 6.65 -11 8.3 -11 10 C-23.02444835 12.29818808 -34.80596877 12.1984562 -47 12 C-47.33 9.03 -47.66 6.06 -48 3 C-7.5423702 -0.36289793 -7.5423702 -0.36289793 0 2 C0 1.34 0 0.68 0 0 Z M-35 44 C-35 44.66 -35 45.32 -35 46 C-34.34 46 -33.68 46 -33 46 C-33 45.34 -33 44.68 -33 44 C-33.66 44 -34.32 44 -35 44 Z " fill="#000000" transform="translate(50,7)"/>
</svg>
