<?xml version="1.0" encoding="UTF-8"?>
<svg version="1.1" xmlns="http://www.w3.org/2000/svg" width="64" height="64">
<path d="M0 0 C4.62 0 9.24 0 14 0 C14.33 1.98 14.66 3.96 15 6 C17.18179664 8.14358786 17.18179664 8.14358786 19.9375 9.75 C24.9561753 12.9561753 24.9561753 12.9561753 27 15 C27.25878906 17.12304687 27.25878906 17.12304687 27.265625 19.71875 C27.26949219 21.11673828 27.26949219 21.11673828 27.2734375 22.54296875 C27.26570313 23.51878906 27.25796875 24.49460937 27.25 25.5 C27.26160156 26.96373047 27.26160156 26.96373047 27.2734375 28.45703125 C27.27085938 29.38902344 27.26828125 30.32101563 27.265625 31.28125 C27.26336914 32.13783203 27.26111328 32.99441406 27.25878906 33.87695312 C27 36 27 36 25 38 C22.37059804 38.19965373 19.84879837 38.2798411 17.21875 38.265625 C16.44946167 38.26753845 15.68017334 38.2694519 14.88757324 38.27142334 C13.2601692 38.27278508 11.6327543 38.26908939 10.00537109 38.26074219 C7.50984369 38.25004221 5.01503618 38.26063751 2.51953125 38.2734375 C0.94010257 38.2721159 -0.63932566 38.2695535 -2.21875 38.265625 C-2.9677356 38.26967346 -3.71672119 38.27372192 -4.48840332 38.27789307 C-9.77007757 38.22992243 -9.77007757 38.22992243 -12 36 C-12.47750616 32.56275816 -12.37037778 29.09166182 -12.375 25.625 C-12.39949219 24.6659375 -12.42398437 23.706875 -12.44921875 22.71875 C-12.47870887 15.6607819 -12.47870887 15.6607819 -10.171875 12.4765625 C-9.45515625 11.98929688 -8.7384375 11.50203125 -8 11 C-6.96875 10.2575 -5.9375 9.515 -4.875 8.75 C-2 7 -2 7 0 7 C0 4.69 0 2.38 0 0 Z " fill="#000000" transform="translate(36,18)"/>
<path d="M0 0 C1.8125 1.1875 1.8125 1.1875 3 3 C3.61770559 6.97096449 3.1593197 8.71432329 1.1875 12.25 C-0.93030792 14.9123871 -2.46464492 16.76164851 -5.9375 17.30078125 C-11.37566138 17.33167989 -11.37566138 17.33167989 -14 15.9375 C-15.64143637 12.75721703 -15.47732313 10.52025809 -15 7 C-11.15002672 1.17004046 -7.06714889 -2.41770883 0 0 Z " fill="#000000" transform="translate(16,47)"/>
<path d="M0 0 C12.87 0 25.74 0 39 0 C39 1.98 39 3.96 39 6 C26.13 6 13.26 6 0 6 C0 4.02 0 2.04 0 0 Z " fill="#000000" transform="translate(24,58)"/>
<path d="M0 0 C6.6 0 13.2 0 20 0 C20.66 1.32 21.32 2.64 22 4 C20 6 20 6 18.06054688 6.24291992 C17.28775391 6.23881104 16.51496094 6.23470215 15.71875 6.23046875 C14.45611328 6.22756836 14.45611328 6.22756836 13.16796875 6.22460938 C12.28753906 6.21236328 11.40710937 6.20011719 10.5 6.1875 C9.61957031 6.18685547 8.73914062 6.18621094 7.83203125 6.18554688 C1.28080115 6.14040057 1.28080115 6.14040057 -1 5 C-0.67 3.35 -0.34 1.7 0 0 Z " fill="#000000" transform="translate(33,10)"/>
<path d="M0 0 C4.62 0 9.24 0 14 0 C14 2.31 14 4.62 14 7 C9.38 7 4.76 7 0 7 C0 4.69 0 2.38 0 0 Z " fill="#000000" transform="translate(36,0)"/>
</svg>
