<svg width="27" height="27" viewBox="0 0 27 27" fill="none" xmlns="http://www.w3.org/2000/svg">
<path d="M13.5 20.5595L8.83124 23.372C8.62499 23.5032 8.40936 23.5595 8.18436 23.5407C7.95936 23.522 7.76249 23.447 7.59374 23.3157C7.42499 23.1845 7.29374 23.0206 7.19999 22.8241C7.10624 22.6269 7.08749 22.4064 7.14374 22.1626L8.38124 16.847L4.24686 13.2751C4.05936 13.1063 3.94236 12.914 3.89586 12.698C3.84861 12.4827 3.86249 12.272 3.93749 12.0657C4.01249 11.8595 4.12499 11.6907 4.27499 11.5595C4.42499 11.4282 4.63124 11.3438 4.89374 11.3063L10.35 10.8282L12.4594 5.82197C12.5531 5.59697 12.6986 5.42822 12.8959 5.31572C13.0924 5.20322 13.2937 5.14697 13.5 5.14697C13.7062 5.14697 13.908 5.20322 14.1052 5.31572C14.3017 5.42822 14.4469 5.59697 14.5406 5.82197L16.65 10.8282L22.1062 11.3063C22.3687 11.3438 22.575 11.4282 22.725 11.5595C22.875 11.6907 22.9875 11.8595 23.0625 12.0657C23.1375 12.272 23.1517 12.4827 23.1052 12.698C23.058 12.914 22.9406 13.1063 22.7531 13.2751L18.6187 16.847L19.8562 22.1626C19.9125 22.4064 19.8937 22.6269 19.8 22.8241C19.7062 23.0206 19.575 23.1845 19.4062 23.3157C19.2375 23.447 19.0406 23.522 18.8156 23.5407C18.5906 23.5595 18.375 23.5032 18.1687 23.372L13.5 20.5595Z" fill="#F2C94C"/>
</svg>
