<svg width="47" height="48" fill="none" xmlns="http://www.w3.org/2000/svg"><path d="M46.841 24.533c0-1.973-.16-3.413-.504-4.906H23.899v8.906h13.17c-.265 2.214-1.699 5.547-4.886 7.787l-.044.298 7.094 5.52.492.049C44.239 38 46.84 31.84 46.84 24.533Z" fill="#4285F4"/><path d="M23.899 48c6.452 0 11.87-2.133 15.826-5.813l-7.541-5.867c-2.019 1.413-4.727 2.4-8.285 2.4-6.32 0-11.684-4.187-13.596-9.973l-.28.024-7.377 5.733-.097.27C6.48 42.613 14.552 48 23.9 48Z" fill="#34A853"/><path d="M10.303 28.747A14.83 14.83 0 0 1 9.506 24c0-1.653.292-3.253.77-4.747l-.013-.318-7.47-5.825-.244.117A24.105 24.105 0 0 0 0 24c0 3.867.93 7.52 2.55 10.773l7.753-6.026Z" fill="#FBBC05"/><path d="M23.899 9.28c4.487 0 7.514 1.947 9.24 3.573l6.745-6.613C35.742 2.373 30.351 0 23.9 0 14.55 0 6.479 5.387 2.549 13.227l7.727 6.026C12.215 13.467 17.58 9.28 23.9 9.28Z" fill="#EB4335"/></svg>