<svg xmlns="http://www.w3.org/2000/svg" width="64" height="64"><path d="M55 2c2.98 2.45 4.864 4.795 7 8v4c-4.379-.505-6.817-3.178-10-6l1.348 1.426 1.715 1.886 1.722 1.864L58 15l-1 3h-2l-1 3h-2l-1 3h-2l-1 3h-2l-1 3h-2l-1 3h-2l-1 3c-3.436-1.527-6.12-3.6-9-6l2.563 2.75c1.44 1.547 1.44 1.547 2.437 3.25-.348 2.203-.348 2.203-1 4l-1.758.262C26.567 41.282 23.013 42.613 19 47c-2.742 4.764-4.437 9.507-5 15-3.835.357-5.553.298-8.813-1.875-3.107-3.019-3.361-4.717-3.437-8.938l-.078-2.582c.733-5.822 4.434-8.835 8.828-12.355l2.906-2.36C16 32 16 32 19 31a70.87 70.87 0 0 0 2-4C41.466-1.248 41.466-1.248 55 2Z"/></svg>