<svg xmlns="http://www.w3.org/2000/svg" width="64" height="64"><path d="M50 7h5l1 2 6-2v4l-3.25.527c-2.301.662-3.458 1.107-4.965 2.993C52.75 16.5 51.86 18.499 51 20.563a476.308 476.308 0 0 1-2.031 4.382l-1 2.13C45.897 31.192 43.024 34.56 40 38l-1.758 2.188c-3.857 4.647-8.11 8.6-12.804 12.374l-1.606 1.34C19.836 56.994 16.98 57.536 12 57c-1-1-1-1-1.46-4.195.55-4.545 1.53-5.461 4.93-8.229l1.905-1.451c1.295-1.05 2.59-2.1 3.883-3.152l1.938-1.539C31.916 31.501 40.93 23.14 46 13l-7-1v5c-12.024 2.298-23.806 2.198-36 2l-1-9c40.458-3.363 40.458-3.363 48-1V7ZM15 51v2h2v-2h-2Z"/></svg>