<svg xmlns="http://www.w3.org/2000/svg" viewBox="0 0 48 48"><path d="M25 1.824c0 1.308.914 2.182 2.75 2.628C34.455 6.084 44 15.919 44 21.196c0 .992.6 1.804 1.333 1.804 6.458 0-3.987-16.917-12.625-20.449C26.012-.187 25-.282 25 1.824M2.998 8.655c-5.194 5.916-1.798 16.318 8.837 27.07C22.891 46.902 33.216 50.383 39.347 45c4.604-4.042 4.582-5.687-.139-10.297-4.456-4.351-6.048-4.567-9.167-1.246-2.788 2.967-5.167 2.109-11.387-4.111-6.22-6.22-7.078-8.599-4.111-11.387 3.355-3.151 3.099-4.927-1.335-9.256-4.733-4.621-6.189-4.628-10.21-.048M24 11.418c0 .779 1.688 2.242 3.75 3.25 2.245 1.097 4.352 3.127 5.25 5.06 1.784 3.841 5.583 4.716 4.436 1.022C35.411 14.228 24 6.302 24 11.418" fill-rule="evenodd"/></svg>