<svg width="27" height="27" fill="none" xmlns="http://www.w3.org/2000/svg"><path d="m13.5 20.56-4.669 2.812a1.022 1.022 0 0 1-.647.169 1.086 1.086 0 0 1-.59-.225 1.35 1.35 0 0 1-.394-.492.985.985 0 0 1-.056-.661l1.237-5.316-4.134-3.572a1.075 1.075 0 0 1-.351-.577 1.115 1.115 0 0 1 .041-.632c.075-.207.188-.375.338-.507.15-.13.356-.215.619-.253l5.456-.478 2.11-5.006c.093-.225.239-.394.436-.506.196-.113.398-.169.604-.169.206 0 .408.056.605.169.197.112.342.281.436.506l2.109 5.006 5.456.478c.263.038.469.122.619.254.15.13.262.3.337.506a1.081 1.081 0 0 1-.31 1.21l-4.133 3.571 1.237 5.316a.985.985 0 0 1-.056.661 1.35 1.35 0 0 1-.394.492 1.086 1.086 0 0 1-.59.225 1.022 1.022 0 0 1-.647-.169L13.5 20.559Z" fill="#F2C94C"/></svg>