<svg width="48" height="48" fill="none" xmlns="http://www.w3.org/2000/svg"><path d="M24 48c13.255 0 24-10.745 24-24S37.255 0 24 0 0 10.745 0 24s10.745 24 24 24Z" fill="#34E0A1"/><path d="m38.824 19.318 2.896-3.15h-6.423A19.938 19.938 0 0 0 24 12.691a19.89 19.89 0 0 0-11.276 3.475H6.286l2.896 3.15a8.852 8.852 0 1 0 11.981 13.035L24 35.443l2.837-3.086a8.816 8.816 0 0 0 6.015 2.357c4.888 0 8.857-3.964 8.857-8.852a8.813 8.813 0 0 0-2.885-6.543ZM15.148 31.852a5.99 5.99 0 0 1-5.99-5.991 5.99 5.99 0 0 1 5.99-5.99 5.99 5.99 0 0 1 5.99 5.99 5.99 5.99 0 0 1-5.99 5.99Zm8.855-6.165c0-3.942-2.867-7.326-6.65-8.772A17.189 17.189 0 0 1 24 15.585c2.357 0 4.604.475 6.65 1.33-3.78 1.448-6.647 4.83-6.647 8.772Zm8.852 6.165a5.99 5.99 0 0 1-5.991-5.991 5.99 5.99 0 0 1 5.99-5.99 5.99 5.99 0 0 1 5.991 5.99 5.99 5.99 0 0 1-5.99 5.99Zm0-9.134a3.14 3.14 0 1 0 0 6.28 3.14 3.14 0 1 0 0-6.28Zm-14.567 3.143a3.14 3.14 0 1 1-6.28 0 3.14 3.14 0 0 1 3.14-3.14 3.137 3.137 0 0 1 3.14 3.14Z" fill="#121212"/></svg>